PathFileType	4	(X/Y/Z)	RBDS05\RBDS05runT25.trc
DataRate	CameraRate	NumFrames	NumMarkers	Units	OrigDataRate	OrigDataStartFrame	OrigNumFrames
150.000000	150.000000	5	33	mm	150.000000	0	4500
Frame#	Time	L.ASIS			L.Heel.Bottom			L.Heel.Lateral			L.Heel.Top			L.Iliac.Crest			L.MT1			L.MT5			L.PSIS			L.Shank.Bottom.Lateral			L.Shank.Bottom.Medial			L.Shank.Top.Lateral			L.Shank.Top.Medial			L.Thigh.Bottom.Lateral			L.Thigh.Bottom.Medial			L.Thigh.Top.Lateral			L.Thigh.Top.Medial			R.ASIS			R.ASY			R.Heel.Bottom			R.Heel.Lateral			R.Heel.Top			R.Iliac.Crest			R.MT1			R.MT5			R.PSIS			R.Shank.Bottom.Lateral			R.Shank.Bottom.Medial			R.Shank.Top.Lateral			R.Shank.Top.Medial			R.Thigh.Bottom.Lateral			R.Thigh.Bottom.Medial			R.Thigh.Top.Lateral			R.Thigh.Top.Medial			
		X1	Y1	Z1	X2	Y2	Z2	X3	Y3	Z3	X4	Y4	Z4	X5	Y5	Z5	X6	Y6	Z6	X7	Y7	Z7	X8	Y8	Z8	X9	Y9	Z9	X10	Y10	Z10	X11	Y11	Z11	X12	Y12	Z12	X13	Y13	Z13	X14	Y14	Z14	X15	Y15	Z15	X16	Y16	Z16	X17	Y17	Z17	X18	Y18	Z18	X19	Y19	Z19	X20	Y20	Z20	X21	Y21	Z21	X22	Y22	Z22	X23	Y23	Z23	X24	Y24	Z24	X25	Y25	Z25	X26	Y26	Z26	X27	Y27	Z27	X28	Y28	Z28	X29	Y29	Z29	X30	Y30	Z30	X31	Y31	Z31	X32	Y32	Z32	X33	Y33	Z33	

1	0	2173.606991867802	973.9400229189297	957.5853105863927	2080.807130711335	64.48353662625426	1023.538663969433	2110.327396810999	86.41347396265802	980.8550361851695	2093.139921366352	112.9690544143877	1028.932151824461	2108.860497389458	1045.610896001014	909.7812983651061	2287.618866541239	73.66762179270464	1047.447971119224	2253.895150661935	75.34940915614291	947.3076522776887	2019.892509031214	1019.447914277305	1003.678113331075	2162.903107232946	208.3540197908545	964.5868550886	2123.910107945911	215.1308011352982	996.9824510769848	2167.916792242007	287.4216499596454	948.0657287160471	2129.236518680053	298.5242614032613	983.1240263251135	2211.566003988032	636.8406861221791	918.1145223091974	2149.978543991507	605.9909388667363	942.2961557927844	2155.253798765295	731.2201492065631	906.3506259633557	2098.878445564057	703.937420303056	933.9957571736194	2158.955279910074	968.5467345750181	1179.639490727528	1844.501118765271	100.186895943835	1109.759334129109	1669.957460499715	142.738812157162	1097.701285786541	1699.515990039856	136.5823857848384	1136.795009416696	1703.869370136475	176.7261505192832	1101.734877844667	2117.985836847514	1023.659456549025	1199.728637971344	1848.322704452233	46.90109269456465	1057.369887846525	1819.476299680658	53.86438048994217	1161.432416411827	2018.991970771798	1019.900295412577	1098.236826295457	1798.038774228404	242.0416541775492	1159.832216951484	1764.983620488319	261.2103015503077	1120.425709171881	1825.784310811928	317.597803299406	1171.341760012638	1792.922575318766	335.3789072623838	1132.118366585599	2000.706499150738	601.188707743577	1203.176852810453	1937.124673926851	615.0823156456711	1168.318639172764	2013.245541069706	710.1014930142728	1219.4437654763	1953.707538655874	723.0606354419343	1183.948895356022	
2	0.006666666666666667	2173.694324914731	975.9081245288979	957.4029738429984	2103.632054695739	58.65575031082194	1025.188202294526	2131.542378731814	81.52003948061153	982.0006049880456	2112.997714198481	107.4975073610114	1029.830225407103	2109.857899792658	1048.723569771811	909.5393157068498	2308.137583774432	80.56214631997258	1047.929013630524	2274.638918677887	78.74858333216811	947.8645631097214	2020.519002811662	1022.207618499119	1003.136092597174	2176.049833028348	206.5625351583731	964.7867579564243	2137.397946927913	211.4332503844493	997.7708369276982	2176.740646602837	285.3472571282077	948.1143150120546	2138.11846505534	294.5475705986098	983.6491060013648	2208.817262145092	637.6279411972502	916.9662055759014	2147.231175594418	607.4921055584996	941.880605094415	2153.392747400183	732.5656030318565	905.5520139071857	2097.041459020499	705.9098203004505	933.7808791312682	2159.707004572536	971.1768653340539	1179.053525204105	1834.601687295315	103.9080572172934	1109.357737182827	1662.877432322995	155.3368398772192	1095.57459097525	1691.557803351818	147.5960584342714	1134.974155201257	1698.446237628156	187.3190545311527	1100.032295702346	2118.998110566029	1026.833108652284	1198.919903414987	1836.139905440227	50.57380795398064	1056.952978679839	1806.704485139176	57.8656826281457	1160.733441931683	2020.034686512693	1022.688549659757	1097.93371338465	1791.505806631871	248.1733212508329	1158.96134898219	1759.421207049606	267.7581254989155	1119.033225347761	1820.357952264051	323.3298227780331	1170.469581886715	1788.515112179932	341.4851734158911	1130.818186486891	1999.859649174682	604.2293303295318	1203.148951989436	1936.551169994615	618.3197572413778	1167.91422015042	2012.860126468288	713.1291814978464	1219.255076123812	1953.505081134225	726.3001209563649	1183.498710236957	
3	0.01333333333333333	2173.761950953186	977.7531963227884	957.1614454651642	2125.874932680513	52.99686353215685	1026.746298163133	2152.173387179738	76.78586967762496	983.0723412169912	2132.312590843281	102.1658913964174	1030.674230097638	2110.822958093935	1051.636790239984	909.263648839234	2328.035533219996	87.38473352738558	1048.255921611736	2294.727432912275	82.18244725262448	948.2809875098017	2021.102131159562	1024.79302854248	1002.60103785749	2188.785053355984	204.8416091045066	964.9629253319504	2150.501002288091	207.8497966853766	998.5335177311375	2185.268150335964	283.324244376632	948.1660980651155	2146.737680081716	290.6694934831119	984.1875182996703	2206.057830723644	638.2929533784808	915.8297582649931	2144.503454174614	608.8712651444321	941.5291014918157	2151.497613938865	733.7753979539988	904.7616328208213	2095.204422050469	707.7475232853583	933.6174697545382	2160.463031566851	973.7143609902121	1178.435852138733	1824.80832814599	107.6355119201066	1109.044698697135	1656.112629098112	167.8429901755761	1093.269990100438	1683.812708704176	158.5610958936362	1133.008621620903	1693.275839616286	197.817078680167	1098.23127717182	2119.997461269287	1029.88057987483	1198.107861877292	1824.172757578425	54.25548982103703	1056.622220178437	1793.986620628631	61.91952328582111	1160.027330753961	2021.034037406092	1025.334370445103	1097.620553244909	1785.166435062848	254.2652290630639	1158.052104826954	1754.07933539981	274.2636072022021	1117.597755208497	1815.156619617675	328.9928055446286	1169.573850923634	1784.360879847506	347.5200856117014	1129.474178229834	1999.256517647166	607.0856097481949	1203.152412021698	1936.196175632183	621.321312986278	1167.565636242381	2012.639852067529	715.9807619924023	1219.082273872095	1953.436626796411	729.3123100285483	1183.100628768717	
4	0.02	2173.800239344086	979.3713186531488	956.8059036375629	2146.978657892726	47.65683177038937	1028.125176119937	2171.677137393758	72.34284187992913	983.9989211248543	2150.581114346957	97.10076837707956	1031.406570348799	2111.713745297168	1054.177425239651	908.9256854092678	2346.743187997995	94.00918252354106	1048.307000461823	2313.564597226743	85.61962282647661	948.4471311300857	2021.612327388762	1027.049575388187	1002.081407086899	2200.720921235735	203.2300168313111	965.0859125836007	2162.849943792609	204.4565117254905	999.238568633476	2193.213597036829	281.3803936027201	948.217762057406	2154.833619257673	286.9572907396199	984.7427586998145	2203.276382728205	638.7201898916072	914.7254930859859	2141.804863153071	610.0172803199772	941.2984968693117	2149.545429136835	734.7267337012553	903.9925412110218	2093.369005202255	709.3323471076257	933.5502025176789	2161.230376499365	976.0774065141463	1177.758263196171	1815.209635359562	111.3854189595633	1108.89567900612	1649.926677878297	180.1681573328173	1090.623412110479	1676.458199999807	169.4361855470907	1130.763556650055	1688.565617343695	208.1325066436647	1096.233368695499	2120.971033325004	1032.69506102825	1197.288563251474	1812.600298651917	57.95710524381308	1056.461424137847	1781.367376929496	66.09388882650217	1159.311975810913	2021.960819665667	1027.713046581656	1097.289445439092	1779.179131253811	260.289327607322	1157.06359886824	1749.145476020328	280.6936134535129	1116.071816443815	1810.37069318181	334.5328786515576	1168.625544400093	1780.678368437857	353.4241701721218	1128.039055957205	1999.108089303947	609.5920307693925	1203.219829489464	1936.252457345825	623.8762054865829	1167.318294679356	2012.726206399388	718.499565586079	1218.942282420604	1953.619861109643	731.895165346399	1182.796438492966	
5	0.02666666666666667	2173.805296721527	980.679722540199	956.293803049773	2166.435062401777	42.74913145828194	1029.250823099545	2189.568612405458	68.28598810597555	984.7201883330785	2167.352228138369	92.40006027049888	1031.976773129852	2112.490514025412	1056.20524758743	908.5045632441286	2363.766422869643	100.2855599702565	1048.001551680048	2330.638246772401	88.99070455967852	948.2901143724838	2022.028485168593	1028.850171536183	1001.586489493396	2211.520492534569	201.742916836485	965.1293528763059	2174.115792880632	201.3022481385867	999.8541984912481	2200.330640211195	279.5278213655138	948.2620691380878	2162.173442714554	283.4581433276903	985.307569699143	2200.473462326268	638.8179193666606	913.678670852034	2139.146880773162	610.8411710357022	941.2306449116452	2147.530125814674	735.3232196446808	903.2612928540028	2091.542954506646	710.5707673084886	933.6107935460659	2162.012918345107	978.1941511379883	1177.001315261379	1805.895091888874	115.1729634949386	1108.965218547363	1644.527945354759	192.2159937249361	1087.518430736195	1669.645962922298	180.1717904871496	1128.14232330442	1684.478672917733	218.1779785694762	1093.963652595524	2121.903709587991	1035.185028338889	1196.460837712214	1801.580086466471	61.68245105613364	1056.541223917306	1768.91612031754	70.45425842190838	1158.593623763839	2022.794117900051	1029.718039238313	1096.935882700305	1773.678769198719	266.2176284455911	1155.965192706951	1744.778446559387	287.0149082966175	1114.419125593521	1806.161041038508	339.901301183416	1167.601852320372	1777.649779690702	359.1428738758301	1126.477808114027	1999.580481070285	611.6114658045944	1203.37957272745	1936.874430152676	625.8110158440702	1167.206007193356	2013.228973895597	720.55552005911	1218.849881738592	1954.149762885339	733.8821951171687	1182.61468692013	
